<svg id="visual" viewBox="0 0 960 540" width="960" height="540" xmlns="http://www.w3.org/2000/svg" xmlns:xlink="http://www.w3.org/1999/xlink" version="1.1"><rect x="0" y="0" width="960" height="540" fill="#f9e0ba"></rect><path d="M0 157L22.8 147.8C45.7 138.7 91.3 120.3 137 123.3C182.7 126.3 228.3 150.7 274 159.8C319.7 169 365.3 163 411.2 152.2C457 141.3 503 125.7 548.8 128.3C594.7 131 640.3 152 686 166.7C731.7 181.3 777.3 189.7 823 193.5C868.7 197.3 914.3 196.7 937.2 196.3L960 196L960 0L937.2 0C914.3 0 868.7 0 823 0C777.3 0 731.7 0 686 0C640.3 0 594.7 0 548.8 0C503 0 457 0 411.2 0C365.3 0 319.7 0 274 0C228.3 0 182.7 0 137 0C91.3 0 45.7 0 22.8 0L0 0Z" fill="#0066FF" stroke-linecap="round" stroke-linejoin="miter"></path></svg>